<svg id="Flat" height="512" viewBox="0 0 512 512" width="512" xmlns="http://www.w3.org/2000/svg"><path d="m392 488h-272a48 48 0 0 1 -48-48v-368a48 48 0 0 1 48-48h224l96 96v320a48 48 0 0 1 -48 48z" fill="#cfd2fc"/><path d="m72 360h368a0 0 0 0 1 0 0v80a48 48 0 0 1 -48 48h-272a48 48 0 0 1 -48-48v-80a0 0 0 0 1 0 0z" fill="#5153ff"/><path d="m440 120h-48a48 48 0 0 1 -48-48v-48z" fill="#8690fa"/><g fill="#fff"><path d="m184 400h16a8 8 0 0 0 0-16h-16a24 24 0 0 0 0 48 8 8 0 0 1 0 16h-16a8 8 0 0 0 0 16h16a24 24 0 0 0 0-48 8 8 0 0 1 0-16z"/><path d="m344 448h-24v-56a8 8 0 0 0 -16 0v64a8 8 0 0 0 8 8h32a8 8 0 0 0 0-16z"/><path d="m282.214 446.9a46.906 46.906 0 0 0 5.786-22.9c0-22.056-14.355-40-32-40s-32 17.944-32 40 14.355 40 32 40a27.027 27.027 0 0 0 15.6-5.09l2.747 2.747a8 8 0 0 0 11.314-11.314zm-26.214 1.1c-8.673 0-16-10.991-16-24s7.327-24 16-24 16 10.991 16 24a33.122 33.122 0 0 1 -1.807 10.879l-8.536-8.536a8 8 0 0 0 -11.314 11.314l9.58 9.58a10.644 10.644 0 0 1 -3.923.763z"/></g><path d="m184 136v144c0 8.836 32.235 16 72 16s72-7.164 72-16v-144z" fill="#8690fa"/><ellipse cx="256" cy="136" fill="#fff" rx="72" ry="16"/><path d="m256 240c-41.384 0-66.495-6.208-72-9.888v17.036c12.312 4.84 33.892 8.852 72 8.852s59.688-4.012 72-8.852v-17.036c-5.5 3.68-30.616 9.888-72 9.888z" fill="#5153ff"/><path d="m256 192c-41.384 0-66.495-6.208-72-9.888v17.036c12.312 4.84 33.892 8.852 72 8.852s59.688-4.012 72-8.852v-17.036c-5.5 3.68-30.616 9.888-72 9.888z" fill="#5153ff"/></svg>